<svg width="94" height="94" viewBox="0 0 94 94" fill="none" xmlns="http://www.w3.org/2000/svg">
<path d="M86.1667 47.0002C86.1667 39.2537 83.8696 31.6813 79.5659 25.2403C75.2622 18.7994 69.1452 13.7793 61.9884 10.8149C54.8317 7.85047 46.9566 7.07484 39.359 8.58609C31.7614 10.0973 24.7825 13.8276 19.305 19.3052C13.8274 24.7827 10.0972 31.7616 8.58591 39.3591C7.07465 46.9567 7.85028 54.8318 10.8147 61.9886C13.7791 69.1454 18.7992 75.2624 25.2402 79.5661C31.6811 83.8698 39.2536 86.1668 47 86.1668C57.3876 86.1668 67.3498 82.0404 74.695 74.6952C82.0402 67.35 86.1667 57.3878 86.1667 47.0002V47.0002ZM39.715 61.4527L28.5133 49.7027C28.3476 49.5328 28.2148 49.3336 28.1217 49.1152C27.9553 48.9309 27.8228 48.7188 27.73 48.4885C27.5228 48.0197 27.4158 47.5128 27.4158 47.0002C27.4158 46.4876 27.5228 45.9807 27.73 45.5118C27.9164 45.0311 28.1959 44.5918 28.5525 44.2193L40.3025 32.4693C41.04 31.7318 42.0403 31.3175 43.0833 31.3175C44.1263 31.3175 45.1266 31.7318 45.8642 32.4693C46.6017 33.2069 47.016 34.2072 47.016 35.2502C47.016 36.2932 46.6017 37.2935 45.8642 38.031L40.7725 43.0835H62.6667C63.7054 43.0835 64.7017 43.4962 65.4362 44.2307C66.1707 44.9652 66.5833 45.9614 66.5833 47.0002C66.5833 48.0389 66.1707 49.0352 65.4362 49.7697C64.7017 50.5042 63.7054 50.9168 62.6667 50.9168H40.4983L45.3942 56.0477C46.1109 56.8008 46.4991 57.8078 46.4734 58.8471C46.4477 59.8865 46.0102 60.873 45.2571 61.5898C44.504 62.3065 43.497 62.6947 42.4576 62.669C41.4183 62.6433 40.4317 62.2058 39.715 61.4527V61.4527Z" fill="black"/>
</svg>
