<svg width="103" height="36" viewBox="0 0 103 36" fill="none" xmlns="http://www.w3.org/2000/svg">
<path d="M57.8799 1.64062L59.9783 1.65131C59.9783 1.65131 62.2047 1.6723 62.2728 3.30912C62.341 4.94595 61.6367 5.57551 60.2736 5.63846C58.9105 5.70142 57.7746 5.65941 57.7746 5.65941V5.34464L59.7057 5.38659C59.7057 5.38659 61.4095 5.19773 61.4095 4.10651C61.4095 3.01528 61.2051 2.82641 61.2051 2.82641C61.2051 2.82641 60.7734 2.008 59.6602 1.92406C58.547 1.84012 57.4111 1.94506 57.4111 1.94506L57.8799 1.64062Z" fill="#333333"/>
<path d="M71.4028 1.60178V1.99224H73.2219V9.54118H74.0352V1.99224H75.8543V1.58008L71.4028 1.60178Z" fill="#333333"/>
<path d="M76.9594 1.63184H77.5787V7.93281C77.5787 7.93281 77.8407 9.40545 79.3888 9.2606C80.5603 9.17134 81.5375 8.81377 81.5324 7.76381C81.5086 7.03956 81.5324 1.63184 81.5324 1.63184H81.8897V7.98108C81.8897 7.98108 81.9611 9.49598 79.7937 9.64686C78.2575 9.79449 77.1598 9.13826 76.9832 8.07765C76.8641 7.16027 76.9594 1.63184 76.9594 1.63184H76.9594Z" fill="#333333"/>
<path d="M84.4854 1.60742H86.5099C86.5099 1.60742 89.8206 1.69192 89.904 5.07175C89.8939 6.61045 90.1351 7.53272 87.4642 9.29269L83.9614 9.42932L84.1741 9.05599H86.9148C86.9148 9.05599 87.5202 9.75426 88.6321 7.94354C89.6682 5.6863 88.7369 3.28527 88.7369 3.28527C88.7369 3.28527 87.9326 2.10324 86.5457 2.0299C85.1761 1.95747 84.414 1.96955 84.414 1.96955L84.4854 1.60742Z" fill="#333333"/>
<path d="M84.4854 1.60742H83.9614V9.42933H84.4854V1.60742Z" fill="#333333"/>
<path d="M92.3899 1.59766H91.5479V9.41605H92.3899V1.59766Z" fill="#333333"/>
<path d="M93.9805 5.95105L94.5679 6.02259C94.5679 6.02259 94.1251 1.65172 97.4741 1.78454C100.823 1.91735 100.311 6.63099 100.311 6.63099L100.672 6.67973L100.905 4.99472C100.905 4.99472 100.316 1.59194 97.4153 1.52631C94.5528 1.46154 94.0009 4.84153 94.0009 4.84153L93.9805 5.95105Z" fill="#333333"/>
<path d="M100.905 4.995L100.295 5.30927C100.295 5.30927 100.728 9.80668 97.4026 9.67479C94.0769 9.54288 94.5858 4.86203 94.5858 4.86203L94.0008 4.8418L93.9956 6.48692C93.9956 6.48692 94.5802 9.86603 97.4609 9.93121C100.304 9.99555 100.887 6.33727 100.887 6.33727L100.905 4.995Z" fill="#333333"/>
<path d="M70.3272 2.21234L70.142 2.67324C70.142 2.67324 69.0641 1.27344 67.7673 2.02455C66.4705 2.77566 67.1778 4.87536 68.5083 5.3192C69.8388 5.67769 71.0408 6.31567 70.6472 8.22123C70.5645 8.62144 68.4409 11.1062 66.521 8.78456L66.6894 8.30659C66.6894 8.30659 68.5588 10.4404 69.603 8.57971C70.7988 6.34345 68.6599 5.91668 68.3399 5.78012C68.0199 5.64355 66.4536 5.11435 66.5378 3.73162C66.6221 2.3489 67.3631 0.727179 70.3272 2.21233" fill="#333333"/>
<path d="M86.915 9.05613C86.915 9.05613 87.6907 9.14194 88.2623 8.50219C88.834 7.86243 88.3576 8.6229 88.3576 8.6229L87.4644 9.29283L86.9821 9.2868L86.915 9.05613Z" fill="#333333"/>
<path d="M84.4854 9.42959H86.5099C86.5099 9.42959 89.8206 9.34535 89.904 5.97595C89.8939 4.442 90.1138 3.77899 87.4429 2.02446L83.9614 1.63184L84.1741 2.00401H86.9148C86.9148 2.00401 87.5202 1.30791 88.6321 3.11303C89.6682 5.36331 88.7369 7.75692 88.7369 7.75692C88.7369 7.75692 87.9326 8.93529 86.5457 9.00841C85.1761 9.08062 84.414 9.06857 84.414 9.06857L84.4854 9.42959Z" fill="#333333"/>
<path d="M93.9956 6.4872C93.9956 6.4872 94.9031 5.98167 94.0008 4.84208C93.9987 4.83953 94.3297 5.41222 94.3297 5.41222L94.2568 4.63086L94.3178 6.74002" fill="#333333"/>
<path d="M19.7255 10.9655C19.7255 10.9655 22.6657 10.5353 23.3394 12.1399C24.0131 13.7446 24.3162 14.7347 22.9015 15.5541C21.4868 16.3735 13.0323 19.9242 13.0323 19.9242C13.0323 19.9242 6.66615 22.5531 2.69151 17.1929C-1.28312 11.8327 3.02835 7.83811 3.02835 7.83811C3.02835 7.83811 4.44305 6.33589 7.94611 4.93609C11.4492 3.53629 17.3774 1.38538 17.3774 1.38538C17.3774 1.38538 22.9015 0.156281 26.9435 1.69266C30.9855 3.22902 33.6128 6.47246 33.6128 6.47246C33.6128 6.47246 36.5769 9.75004 36.4422 13.847C36.3044 18.0376 35.1959 18.7975 35.1959 18.7975C35.1959 18.7975 33.0402 23.4749 27.8193 25.421C22.5984 27.367 21.3184 28.1181 21.3184 28.1181L23.6089 31.7713C23.6089 31.7713 24.9225 34.4685 22.2278 35.2879C19.5332 36.1073 18.2195 34.1612 18.2195 34.1612L12.6955 25.8648L26.5393 19.6852C26.5393 19.6852 30.9855 16.5442 30.5476 13.3349C30.1267 10.2501 28.4929 8.17953 26.3035 6.95043C23.7436 5.34579 21.4868 5.75549 21.4868 5.75549C21.4868 5.75549 19.0279 6.13104 16.1312 7.36013C12.8976 8.58923 8.82188 10.4329 8.82188 10.4329C8.82188 10.4329 6.363 11.2181 7.07035 13.1983C7.7777 15.1785 9.89975 15.0078 9.89975 15.0078L19.7255 10.9655Z" fill="#333333"/>
<path d="M44.5264 15.9717H42.5054V33.7935H44.5264V15.9717Z" fill="#333333"/>
<path d="M44.5265 15.9717L48.9263 15.9963C48.9263 15.9963 53.5945 16.0446 53.7374 19.8107C53.8803 23.5768 52.4036 25.0253 49.5455 25.1701C46.6874 25.315 44.3056 25.2184 44.3056 25.2184V24.4942L48.3546 24.5907C48.3546 24.5907 51.9273 24.1562 51.9273 21.6455C51.9273 19.1347 51.4986 18.7002 51.4986 18.7002C51.4986 18.7002 50.5935 16.8171 48.2594 16.624C45.9252 16.4309 43.5435 16.6723 43.5435 16.6723L44.5265 15.9717Z" fill="#333333"/>
<path d="M72.2139 15.9033H70.1929V33.7252H72.2139V15.9033Z" fill="#333333"/>
<path d="M59.6162 18.1569L65.8139 33.7937H67.7002L60.6267 15.2207L59.6162 18.1569Z" fill="#333333"/>
<path d="M53.2163 33.6571L60.6266 15.2207L61.1656 17.0643L59.6161 18.1569L60.1045 19.3177L54.4992 33.7647L53.2163 33.6571Z" fill="#333333"/>
<path d="M63.5022 27.3428H56.3569V28.067H64.0262L63.5022 27.3428Z" fill="#333333"/>
<path d="M92.0835 15.9965V16.8656H96.1325V33.6682H97.9427V16.8656H101.992V15.9482L92.0835 15.9965Z" fill="#333333"/>
<path d="M77.0308 15.8999V33.5715H77.9835V18.6037L89.8447 34.1992V15.9481H88.8444V29.7089L78.3169 15.8516L77.0308 15.8999Z" fill="#333333"/>
<path d="M48.0446 3.20112L48.5686 3.17701C48.5686 3.17701 46.9224 1.30583 45.2998 1.5778C43.5341 1.87375 42.9595 2.75453 42.9595 2.75453C42.9595 2.75453 42.2331 3.49084 42.1378 5.01177C42.0425 6.14642 42.2093 6.6534 42.2093 6.6534C42.2093 6.6534 42.6856 9.67111 45.1388 9.69525C47.5921 9.71937 48.5448 8.22261 48.5448 8.22261L48.1875 7.8122C48.1875 7.8122 44.2432 11.5319 43.0191 7.13624C41.6416 2.19001 45.5827 1.83457 45.5827 1.83457C45.5827 1.83457 46.8775 1.63193 48.0446 3.20114V3.20112Z" fill="#333333"/>
<path d="M49.8789 1.70508H50.7363V8.89929H53.4992L53.4873 9.44248L49.8789 9.45453L49.8789 1.70508Z" fill="#333333"/>
<path d="M54.3086 1.65625H55.166V9.42988H54.4039L54.3086 1.65625Z" fill="#333333"/>
<path d="M58.1177 1.6377H57.4116V9.3659H58.1177V1.6377Z" fill="#333333"/>
</svg>
