<svg width="24" height="25" viewBox="0 0 24 25" fill="none" xmlns="http://www.w3.org/2000/svg">
<path fill-rule="evenodd" clip-rule="evenodd" d="M8.27653 7.25238C8.27653 7.85763 7.80591 8.347 7.22616 8.347C6.64491 8.347 6.17578 7.85763 6.17578 7.25238C6.17578 6.64788 6.64491 6.15625 7.22616 6.15625C7.80628 6.15625 8.27653 6.6475 8.27653 7.25238Z" fill="#C8832E"/>
<path fill-rule="evenodd" clip-rule="evenodd" d="M5.75781 11.6544C5.75781 11.6544 8.22044 10.1274 6.96344 7.04004C6.96344 7.04004 11.4196 13.4563 12.6777 10.7263C13.9354 7.99591 12.3106 14.0582 12.2059 14.2213C12.1013 14.3859 10.0043 16.0243 10.0043 16.0243H6.70206L5.75781 11.6544Z" fill="#C8832E"/>
<path d="M16.7761 8.34745C17.3568 8.34745 17.8276 7.85737 17.8276 7.25283C17.8276 6.64828 17.3568 6.1582 16.7761 6.1582C16.1954 6.1582 15.7246 6.64828 15.7246 7.25283C15.7246 7.85737 16.1954 8.34745 16.7761 8.34745Z" fill="#C8832E"/>
<path fill-rule="evenodd" clip-rule="evenodd" d="M18.2432 11.6544C18.2432 11.6544 15.7791 10.1274 17.0376 7.04004C17.0376 7.04004 12.5811 13.4563 11.3226 10.7263C10.0652 7.99591 11.6904 14.0582 11.7962 14.2213C11.8989 14.3859 13.9963 16.0243 13.9963 16.0243H17.3001L18.2432 11.6544Z" fill="#C8832E"/>
<path fill-rule="evenodd" clip-rule="evenodd" d="M22.5261 6.16255C21.7214 6.16255 21.0696 6.87767 21.0696 7.76117C21.0696 7.99667 21.1184 8.22017 21.202 8.42117C18.9483 9.71642 16.8539 11.7167 16.8539 11.7167C14.9493 13.9153 13.4069 10.3314 12.5658 7.58417C13.5903 7.29505 14.3496 6.27617 14.3496 5.06042C14.3496 3.6193 13.2861 2.45117 11.9729 2.45117C10.66 2.45117 9.59613 3.6193 9.59613 5.06042C9.59613 6.2953 10.378 7.32542 11.4284 7.59842C10.5854 10.346 9.04563 13.9145 7.14588 11.7185C7.14588 11.7185 5.0515 9.7183 2.7955 8.42305C2.88316 8.21404 2.92841 7.98969 2.92863 7.76305C2.92863 6.87955 2.27613 6.16442 1.47213 6.16442C0.66775 6.16442 0.015625 6.87955 0.015625 7.76305C0.015625 8.64655 0.668125 9.36242 1.47213 9.36242C1.74213 9.36242 1.99075 9.27655 2.20825 9.13592C3.04975 10.8905 4.23775 14.0447 3.6175 16.9374C3.6175 16.9374 4.53062 20.5955 11.9991 20.4722C19.4673 20.5955 20.3793 16.9374 20.3793 16.9374C19.7598 14.0458 20.9474 10.8924 21.7896 9.13592C22.0071 9.27655 22.2558 9.36242 22.5258 9.36242C23.3301 9.36242 23.9826 8.64655 23.9826 7.76305C23.9826 6.87955 23.3305 6.16405 22.5261 6.16405" fill="#F79420"/>
<path fill-rule="evenodd" clip-rule="evenodd" d="M11.9998 21.308C6.03241 21.4066 4.25154 19.0921 3.77716 18.1572C3.75786 18.5792 3.70469 18.9989 3.61816 19.4124C3.61816 19.4124 4.53129 23.0697 11.9998 22.9479C19.4679 23.0697 20.3799 19.4124 20.3799 19.4124C20.2936 18.9989 20.2407 18.5792 20.2217 18.1572C19.7473 19.0921 17.9679 21.4066 11.9998 21.308Z" fill="#C8832E"/>
<path fill-rule="evenodd" clip-rule="evenodd" d="M11.6628 20.4308C12.7345 15.0439 13.1665 9.54452 11.5611 4.19327C11.3781 3.58427 11.3301 3.01652 11.383 2.49414C10.3555 2.78252 9.59612 3.80139 9.59612 5.01939C9.59612 6.25427 10.378 7.28814 11.4284 7.55664C10.5854 10.305 9.04562 13.8743 7.14587 11.6775C7.14587 11.6775 5.0515 9.67727 2.7955 8.38164C2.88322 8.17252 2.92848 7.94804 2.92863 7.72127C2.92863 6.83927 2.27612 6.12339 1.47213 6.12339C0.66775 6.12339 0.015625 6.83927 0.015625 7.72127C0.015625 8.60552 0.668125 9.32139 1.47213 9.32139C1.74213 9.32139 1.99075 9.23477 2.20825 9.09489C3.04975 10.8484 4.23775 14.0036 3.6175 16.8953C3.6175 16.8953 4.50812 20.4379 11.6628 20.4319" fill="#F19D43"/>
<path d="M12.0002 15.7979L12.6347 16.9829L14.051 17.1719L13.0247 18.0929L13.2677 19.3945L12.0002 18.7791L10.7342 19.3945L10.9764 18.0929L9.95117 17.1719L11.3664 16.9829L12.0002 15.7979Z" fill="white"/>
<path d="M11.9769 16.4211C11.9687 16.2207 11.9808 16.0199 12.0129 15.8219L12.0013 15.7979L11.3672 16.9821L9.95117 17.1719L10.9749 18.0921L10.7338 19.3945L12.0013 18.7802L13.2669 19.3945L13.1649 18.8417C12.4423 18.2121 12.0125 17.338 11.9769 16.4211ZM16.9539 16.441L17.3439 17.1659L18.2109 17.2829L17.5843 17.8465L17.7302 18.6456L16.9539 18.2706L16.1777 18.6456L16.3262 17.8465L15.6984 17.2829L16.5677 17.1659L16.9539 16.441Z" fill="white"/>
<path d="M16.9392 16.8222C16.9345 16.6993 16.9422 16.5764 16.9621 16.4551L16.9546 16.4404L16.5664 17.1657L15.6983 17.2823L16.3261 17.8463L16.1787 18.6454L16.9546 18.2704L17.7304 18.6454L17.6682 18.3064C17.2253 17.9198 16.9617 17.3828 16.9392 16.8222ZM7.01444 16.4408L7.40181 17.1657L8.26919 17.2827L7.64181 17.8463L7.79031 18.6454L7.01444 18.2704L6.23819 18.6454L6.38669 17.8463L5.75781 17.2827L6.62519 17.1657L7.01444 16.4408Z" fill="white"/>
<path d="M6.99869 16.8222C6.99259 16.6993 7.00051 16.5761 7.02231 16.4551L7.01444 16.4404L6.62519 17.1657L5.75781 17.2823L6.38519 17.8463L6.23781 18.6454L7.01406 18.2704L7.78994 18.6454L7.72694 18.3064C7.28406 17.9198 7.02081 17.3828 6.99869 16.8222Z" fill="white"/>
</svg>
