<svg width="94" height="94" viewBox="0 0 94 94" fill="none" xmlns="http://www.w3.org/2000/svg">
<path d="M7.83337 47.0002C7.83337 54.7466 10.1305 62.3191 14.4341 68.76C18.7378 75.2009 24.8548 80.221 32.0116 83.1854C39.1684 86.1499 47.0435 86.9255 54.6411 85.4143C62.2387 83.903 69.2175 80.1727 74.6951 74.6952C80.1726 69.2176 83.9029 62.2388 85.4141 54.6412C86.9254 47.0436 86.1498 39.1685 83.1853 32.0117C80.2209 24.855 75.2008 18.738 68.7599 14.4343C62.319 10.1306 54.7465 7.8335 47 7.8335C41.8566 7.8335 36.7635 8.84657 32.0116 10.8149C27.2597 12.7832 22.942 15.6682 19.305 19.3051C11.9599 26.6503 7.83337 36.6125 7.83337 47.0002V47.0002ZM54.285 32.5477L65.4867 44.2977C65.6525 44.4676 65.7853 44.6668 65.8784 44.8852C66.0447 45.0694 66.1773 45.2816 66.27 45.5118C66.4773 45.9807 66.5843 46.4876 66.5843 47.0002C66.5843 47.5127 66.4773 48.0197 66.27 48.4885C66.0836 48.9693 65.8041 49.4085 65.4475 49.781L53.6975 61.531C52.96 62.2685 51.9597 62.6829 50.9167 62.6829C49.8737 62.6829 48.8734 62.2685 48.1359 61.531C47.3984 60.7935 46.984 59.7932 46.984 58.7502C46.984 57.7071 47.3984 56.7069 48.1359 55.9693L53.2275 50.9168H31.3334C30.2946 50.9168 29.2984 50.5042 28.5639 49.7697C27.8294 49.0351 27.4167 48.0389 27.4167 47.0002C27.4167 45.9614 27.8294 44.9652 28.5639 44.2307C29.2984 43.4961 30.2946 43.0835 31.3334 43.0835H53.5017L48.6059 37.9527C47.8891 37.1996 47.5009 36.1926 47.5266 35.1532C47.5523 34.1139 47.9899 33.1273 48.743 32.4106C49.4961 31.6938 50.503 31.3056 51.5424 31.3313C52.5817 31.357 53.5683 31.7946 54.285 32.5477V32.5477Z" fill="black"/>
</svg>
