<svg width="10" height="11" viewBox="0 0 10 11" fill="none" xmlns="http://www.w3.org/2000/svg">
<path d="M4.99988 9.98633C4.93851 9.98614 4.87892 9.96563 4.83044 9.928C3.28599 8.728 2.2221 7.69467 1.47766 6.67522C0.52766 5.37244 0.310993 4.16967 0.833215 3.10022C1.20544 2.33633 2.27488 1.71133 3.52488 2.07522C4.12086 2.24737 4.64085 2.61655 4.99988 3.12244C5.35891 2.61655 5.8789 2.24737 6.47488 2.07522C7.7221 1.71689 8.79433 2.33633 9.16655 3.10022C9.68877 4.16967 9.4721 5.37244 8.5221 6.67522C7.77766 7.69467 6.71377 8.728 5.16933 9.928C5.12084 9.96563 5.06126 9.98614 4.99988 9.98633ZM2.81377 2.528C2.51634 2.51642 2.22137 2.58607 1.96053 2.72946C1.69969 2.87285 1.48283 3.08457 1.33322 3.34189C0.90266 4.22522 1.0971 5.20856 1.92766 6.34467C2.81032 7.48316 3.84389 8.49617 4.99988 9.35578C6.15569 8.49702 7.18925 7.48496 8.0721 6.34744C8.90544 5.20856 9.0971 4.22522 8.66655 3.34467C8.38877 2.78911 7.55544 2.34744 6.62766 2.60855C6.33017 2.69647 6.05439 2.8457 5.81805 3.04663C5.58171 3.24756 5.39007 3.49575 5.25544 3.77522C5.23451 3.82617 5.19891 3.86974 5.15316 3.90041C5.10741 3.93108 5.05357 3.94745 4.99849 3.94745C4.94341 3.94745 4.88958 3.93108 4.84383 3.90041C4.79808 3.86974 4.76248 3.82617 4.74155 3.77522C4.60793 3.49505 4.41661 3.24629 4.18013 3.04523C3.94365 2.84417 3.66734 2.69536 3.36933 2.60855C3.18876 2.55611 3.00179 2.529 2.81377 2.528Z" fill="white"/>
</svg>
