<svg width="11" height="11" viewBox="0 0 11 11" fill="none" xmlns="http://www.w3.org/2000/svg">
<path d="M5.21476 3.56826C4.31365 3.56826 3.57827 4.37049 3.57827 5.35352C3.57827 6.33656 4.31365 7.13879 5.21476 7.13879C6.11588 7.13879 6.85126 6.33656 6.85126 5.35352C6.85126 4.37049 6.11588 3.56826 5.21476 3.56826ZM10.123 5.35352C10.123 4.61424 10.1292 3.88165 10.0911 3.1437C10.053 2.28656 9.8738 1.52584 9.29925 0.899059C8.72347 0.270934 8.02737 0.0767376 7.24166 0.0352198C6.56398 -0.00629809 5.89244 0.000398363 5.21599 0.000398363C4.53831 0.000398363 3.86677 -0.00629809 3.19032 0.0352198C2.40461 0.0767376 1.70728 0.272273 1.13273 0.899059C0.55695 1.52718 0.378937 2.28656 0.340879 3.1437C0.302821 3.88299 0.308959 4.61558 0.308959 5.35352C0.308959 6.09147 0.302821 6.8254 0.340879 7.56335C0.378937 8.42049 0.558178 9.1812 1.13273 9.80799C1.70851 10.4361 2.40461 10.6303 3.19032 10.6718C3.868 10.7133 4.53954 10.7066 5.21599 10.7066C5.89367 10.7066 6.56521 10.7133 7.24166 10.6718C8.02737 10.6303 8.7247 10.4348 9.29925 9.80799C9.87503 9.17986 10.053 8.42049 10.0911 7.56335C10.1304 6.8254 10.123 6.09281 10.123 5.35352V5.35352ZM5.21476 8.1004C3.82135 8.1004 2.69679 6.87361 2.69679 5.35352C2.69679 3.83343 3.82135 2.60665 5.21476 2.60665C6.60818 2.60665 7.73273 3.83343 7.73273 5.35352C7.73273 6.87361 6.60818 8.1004 5.21476 8.1004ZM7.83586 3.13567C7.51052 3.13567 7.2478 2.84906 7.2478 2.49415C7.2478 2.13924 7.51052 1.85263 7.83586 1.85263C8.16119 1.85263 8.42392 2.13924 8.42392 2.49415C8.42401 2.57842 8.40887 2.66189 8.37935 2.73977C8.34983 2.81765 8.30652 2.88841 8.25189 2.94801C8.19727 3.0076 8.1324 3.05485 8.06101 3.08705C7.98962 3.11925 7.91311 3.13577 7.83586 3.13567V3.13567Z" fill="white"/>
</svg>
