<svg width="11" height="12" viewBox="0 0 11 12" fill="none" xmlns="http://www.w3.org/2000/svg">
<path d="M5.21476 4.21474C4.31365 4.21474 3.57827 5.01697 3.57827 6.00001C3.57827 6.98304 4.31365 7.78528 5.21476 7.78528C6.11588 7.78528 6.85126 6.98304 6.85126 6.00001C6.85126 5.01697 6.11588 4.21474 5.21476 4.21474ZM10.123 6.00001C10.123 5.26072 10.1292 4.52813 10.0911 3.79019C10.053 2.93304 9.8738 2.17233 9.29925 1.54554C8.72347 0.917418 8.02738 0.723222 7.24166 0.681704C6.56398 0.640186 5.89244 0.646883 5.21599 0.646883C4.53831 0.646883 3.86677 0.640186 3.19032 0.681704C2.40461 0.723222 1.70729 0.918758 1.13273 1.54554C0.55695 2.17367 0.378937 2.93304 0.340879 3.79019C0.302821 4.52947 0.308959 5.26206 0.308959 6.00001C0.308959 6.73795 0.302821 7.47188 0.340879 8.20983C0.378937 9.06697 0.558178 9.82769 1.13273 10.4545C1.70851 11.0826 2.40461 11.2768 3.19032 11.3183C3.868 11.3598 4.53954 11.3531 5.21599 11.3531C5.89367 11.3531 6.56521 11.3598 7.24166 11.3183C8.02738 11.2768 8.7247 11.0813 9.29925 10.4545C9.87503 9.82635 10.053 9.06697 10.0911 8.20983C10.1304 7.47188 10.123 6.73929 10.123 6.00001ZM5.21476 8.74688C3.82135 8.74688 2.69679 7.5201 2.69679 6.00001C2.69679 4.47992 3.82135 3.25313 5.21476 3.25313C6.60818 3.25313 7.73273 4.47992 7.73273 6.00001C7.73273 7.5201 6.60818 8.74688 5.21476 8.74688ZM7.83586 3.78215C7.51052 3.78215 7.2478 3.49554 7.2478 3.14063C7.2478 2.78572 7.51052 2.49911 7.83586 2.49911C8.16119 2.49911 8.42392 2.78572 8.42392 3.14063C8.42401 3.22491 8.40887 3.30838 8.37935 3.38626C8.34983 3.46414 8.30652 3.5349 8.25189 3.59449C8.19727 3.65408 8.1324 3.70133 8.06101 3.73353C7.98962 3.76574 7.91311 3.78226 7.83586 3.78215Z" fill="black"/>
</svg>
