<svg width="30" height="31" viewBox="0 0 30 31" fill="none" xmlns="http://www.w3.org/2000/svg">
<path d="M12.1 17.6125L15 15.4125L17.8875 17.6125L16.7875 14.05L19.6875 11.75H16.1375L15 8.2375L13.8625 11.75H10.3125L13.2 14.05L12.1 17.6125ZM25 13C25 7.475 20.525 3 15 3C9.475 3 5 7.475 5 13C5 15.5375 5.95 17.8375 7.5 19.6V29.25L15 26.75L22.5 29.25V19.6C24.1118 17.7794 25.0011 15.4316 25 13ZM15 5.5C19.1375 5.5 22.5 8.8625 22.5 13C22.5 17.1375 19.1375 20.5 15 20.5C10.8625 20.5 7.5 17.1375 7.5 13C7.5 8.8625 10.8625 5.5 15 5.5Z" fill="#FFD233"/>
</svg>
