<svg width="13" height="12" viewBox="0 0 13 12" fill="none" xmlns="http://www.w3.org/2000/svg">
<path d="M6.71484 0C3.40145 0 0.714844 2.68661 0.714844 6C0.714844 9.31339 3.40145 12 6.71484 12C10.0282 12 12.7148 9.31339 12.7148 6C12.7148 2.68661 10.0282 0 6.71484 0ZM9.59833 4.52277C9.60234 4.58571 9.60234 4.65134 9.60234 4.71563C9.60234 6.6817 8.10502 8.94643 5.36886 8.94643C4.52511 8.94643 3.74297 8.70134 3.08404 8.27946C3.20458 8.29286 3.31975 8.29821 3.44297 8.29821C4.1394 8.29821 4.77958 8.0625 5.28984 7.66339C4.63627 7.65 4.08717 7.22143 3.89967 6.63214C4.12868 6.66563 4.33493 6.66563 4.57065 6.60536C4.23412 6.53699 3.93164 6.35422 3.7146 6.0881C3.49755 5.82199 3.37933 5.48894 3.38002 5.14554V5.12679C3.5769 5.23795 3.80859 5.30625 4.051 5.31562C3.84722 5.17981 3.6801 4.99582 3.56446 4.77995C3.44881 4.56408 3.38822 4.32302 3.38806 4.07813C3.38806 3.80089 3.46038 3.54777 3.59029 3.32813C3.96382 3.78795 4.42993 4.16403 4.95832 4.43192C5.48672 4.69981 6.06557 4.85351 6.65725 4.88304C6.44699 3.87188 7.20234 3.05357 8.11038 3.05357C8.53895 3.05357 8.92467 3.23304 9.19654 3.52232C9.5327 3.45938 9.85413 3.33348 10.1407 3.16473C10.0296 3.50893 9.79654 3.79955 9.48717 3.98304C9.78717 3.95089 10.0765 3.86786 10.3443 3.75134C10.1421 4.04866 9.88895 4.3125 9.59833 4.52277V4.52277Z" fill="white"/>
</svg>
