<svg width="10" height="10" viewBox="0 0 10 10" fill="none" xmlns="http://www.w3.org/2000/svg">
<path d="M6.5625 5C6.5625 5.4144 6.39788 5.81183 6.10485 6.10485C5.81183 6.39788 5.4144 6.5625 5 6.5625C4.5856 6.5625 4.18817 6.39788 3.89515 6.10485C3.60212 5.81183 3.4375 5.4144 3.4375 5C3.4375 4.5856 3.60212 4.18817 3.89515 3.89515C4.18817 3.60212 4.5856 3.4375 5 3.4375C5.4144 3.4375 5.81183 3.60212 6.10485 3.89515C6.39788 4.18817 6.5625 4.5856 6.5625 5V5Z" fill="white"/>
<path d="M0 5C0 5 1.875 1.5625 5 1.5625C8.125 1.5625 10 5 10 5C10 5 8.125 8.4375 5 8.4375C1.875 8.4375 0 5 0 5ZM5 7.1875C5.58016 7.1875 6.13656 6.95703 6.5468 6.5468C6.95703 6.13656 7.1875 5.58016 7.1875 5C7.1875 4.41984 6.95703 3.86344 6.5468 3.4532C6.13656 3.04297 5.58016 2.8125 5 2.8125C4.41984 2.8125 3.86344 3.04297 3.4532 3.4532C3.04297 3.86344 2.8125 4.41984 2.8125 5C2.8125 5.58016 3.04297 6.13656 3.4532 6.5468C3.86344 6.95703 4.41984 7.1875 5 7.1875V7.1875Z" fill="white"/>
</svg>
