<svg width="10" height="10" viewBox="0 0 10 10" fill="none" xmlns="http://www.w3.org/2000/svg">
<g clip-path="url(#clip0_411_471)">
<path d="M5.00037 9.00831C4.93899 9.00811 4.87941 8.9876 4.83092 8.94997C3.28648 7.74997 2.22259 6.71664 1.47815 5.69719C0.528148 4.39442 0.311481 3.19164 0.833703 2.12219C1.20593 1.35831 2.27537 0.733305 3.52537 1.09719C4.12135 1.26934 4.64134 1.63852 5.00037 2.14442C5.3594 1.63852 5.87939 1.26934 6.47537 1.09719C7.72259 0.738861 8.79481 1.35831 9.16704 2.12219C9.68926 3.19164 9.47259 4.39442 8.52259 5.69719C7.77815 6.71664 6.71426 7.74997 5.16981 8.94997C5.12133 8.9876 5.06174 9.00811 5.00037 9.00831ZM2.81426 1.54997C2.51683 1.5384 2.22186 1.60804 1.96102 1.75143C1.70018 1.89482 1.48331 2.10654 1.3337 2.36386C0.903148 3.24719 1.09759 4.23053 1.92815 5.36664C2.81081 6.50513 3.84437 7.51814 5.00037 8.37775C6.15618 7.519 7.18974 6.50693 8.07259 5.36942C8.90592 4.23053 9.09759 3.24719 8.66704 2.36664C8.38926 1.81108 7.55592 1.36942 6.62815 1.63053C6.33066 1.71844 6.05487 1.86767 5.81854 2.0686C5.5822 2.26954 5.39055 2.51772 5.25593 2.79719C5.235 2.84814 5.1994 2.89172 5.15365 2.92238C5.10789 2.95305 5.05406 2.96943 4.99898 2.96943C4.9439 2.96943 4.89007 2.95305 4.84432 2.92238C4.79857 2.89172 4.76296 2.84814 4.74204 2.79719C4.60842 2.51702 4.4171 2.26826 4.18062 2.0672C3.94413 1.86614 3.66783 1.71733 3.36981 1.63053C3.18925 1.57808 3.00228 1.55097 2.81426 1.54997Z" fill="black"/>
</g>
<defs>
<clipPath id="clip0_411_471">
<rect width="10" height="10" fill="white"/>
</clipPath>
</defs>
</svg>
