<svg width="13" height="10" viewBox="0 0 13 10" fill="none" xmlns="http://www.w3.org/2000/svg">
<path d="M12.4644 2.10827C12.3961 1.85386 12.2622 1.62185 12.076 1.43546C11.8899 1.24908 11.658 1.11485 11.4037 1.04622C10.4675 0.794434 6.71484 0.794434 6.71484 0.794434C6.71484 0.794434 2.96217 0.794434 2.026 1.04488C1.77157 1.11329 1.53961 1.24744 1.35342 1.43386C1.16724 1.62028 1.03338 1.85241 0.96529 2.10693C0.714844 3.04443 0.714844 4.99979 0.714844 4.99979C0.714844 4.99979 0.714844 6.95515 0.96529 7.89131C1.10324 8.40827 1.51038 8.81542 2.026 8.95336C2.96217 9.20515 6.71484 9.20515 6.71484 9.20515C6.71484 9.20515 10.4675 9.20515 11.4037 8.95336C11.9206 8.81542 12.3265 8.40827 12.4644 7.89131C12.7148 6.95515 12.7148 4.99979 12.7148 4.99979C12.7148 4.99979 12.7148 3.04443 12.4644 2.10827ZM5.52288 6.79443V3.20515L8.63002 4.9864L5.52288 6.79443Z" fill="black"/>
</svg>
