<svg width="13" height="9" viewBox="0 0 13 9" fill="none" xmlns="http://www.w3.org/2000/svg">
<path d="M12.4644 1.31384C12.3961 1.05943 12.2622 0.827417 12.076 0.64103C11.8899 0.454644 11.658 0.320418 11.4037 0.251786C10.4675 5.10897e-08 6.71484 0 6.71484 0C6.71484 0 2.96217 -5.10897e-08 2.026 0.250446C1.77157 0.318856 1.53961 0.453007 1.35342 0.639428C1.16724 0.825849 1.03338 1.05798 0.96529 1.3125C0.714844 2.25 0.714844 4.20536 0.714844 4.20536C0.714844 4.20536 0.714844 6.16072 0.96529 7.09688C1.10324 7.61384 1.51038 8.02098 2.026 8.15893C2.96217 8.41072 6.71484 8.41071 6.71484 8.41071C6.71484 8.41071 10.4675 8.41072 11.4037 8.15893C11.9206 8.02098 12.3265 7.61384 12.4644 7.09688C12.7148 6.16072 12.7148 4.20536 12.7148 4.20536C12.7148 4.20536 12.7148 2.25 12.4644 1.31384ZM5.52288 6V2.41071L8.63002 4.19196L5.52288 6Z" fill="white"/>
</svg>
